<svg version="1.1" xmlns="http://www.w3.org/2000/svg" xmlns:xlink="http://www.w3.org/1999/xlink" id="whatsappIcon" width="60" height="60" viewBox="0 0 20 20"><g id="b"><path id="c" fill="#832729" d="M15.95,3.96c-3.3-3.28-8.63-3.27-11.92,.03C1.36,6.68,.81,10.83,2.7,14.13l-1.2,4.36,4.47-1.17c1.24,.67,2.62,1.02,4.03,1.02h0c4.67,0,8.46-3.76,8.51-8.42-.02-2.25-.94-4.39-2.55-5.96Zm-5.95,12.96c-1.25,0-2.49-.34-3.57-.98l-.25-.15-2.65,.69,.71-2.58-.17-.27c-2.01-3.31-.95-7.63,2.36-9.64,3.31-2.01,7.63-.95,9.64,2.36,.65,1.07,1,2.3,1.02,3.55-.04,3.88-3.2,7-7.08,7h0Zm3.84-5.24c-.21-.11-1.24-.61-1.44-.68s-.33-.11-.47,.11-.54,.68-.67,.83-.25,.16-.45,.05c-1.21-.48-2.22-1.36-2.86-2.5-.22-.37,.22-.35,.62-1.15,.06-.12,.05-.26-.02-.37-.05-.11-.47-1.14-.65-1.56s-.35-.36-.48-.36-.26,0-.4,0c-.22,0-.42,.1-.56,.26-.48,.46-.75,1.09-.74,1.76,.07,.79,.37,1.55,.86,2.18,.9,1.35,2.15,2.45,3.6,3.18,.76,.44,1.65,.63,2.53,.53,.59-.12,1.11-.48,1.42-1,.14-.31,.18-.66,.12-1-.05-.1-.19-.16-.4-.26h0Z"></path></g></svg>